<?xml version="1.0" encoding="utf-8"?>
<!-- Generator: Adobe Illustrator 24.3.0, SVG Export Plug-In . SVG Version: 6.00 Build 0)  -->
<svg version="1.1" id="Layer_1" xmlns="http://www.w3.org/2000/svg" xmlns:xlink="http://www.w3.org/1999/xlink" x="0px" y="0px"
	 viewBox="0 0 48 48" style="enable-background:new 0 0 48 48;" xml:space="preserve">
<style type="text/css">
	.st0{fill:#FFFFFF;}
</style>
<path class="st0" d="M24,44c-2.8,0-5.4-0.5-7.8-1.6c-2.4-1-4.5-2.5-6.4-4.3c-1.8-1.8-3.2-3.9-4.3-6.4S4,26.8,4,24s0.5-5.4,1.6-7.8
	s2.5-4.6,4.3-6.4s3.9-3.2,6.4-4.3S21.2,4,24,4s5.4,0.5,7.8,1.6s4.6,2.5,6.3,4.3c1.8,1.8,3.2,3.9,4.3,6.4c1.1,2.4,1.6,5,1.6,7.8
	s-0.5,5.4-1.6,7.8c-1,2.4-2.5,4.6-4.3,6.3c-1.8,1.8-3.9,3.2-6.4,4.3C29.4,43.5,26.8,44,24,44z M21.9,41v-4.1c-1.2,0-2.2-0.4-3-1.3
	c-0.8-0.9-1.2-1.9-1.2-3v-2.2L7.4,20c-0.2,0.7-0.3,1.3-0.3,2C7,22.7,7,23.3,7,24c0,4.3,1.4,8.1,4.2,11.3S17.6,40.4,21.9,41z
	 M36.5,35.5c0.7-0.8,1.4-1.7,1.9-2.5s1-1.8,1.4-2.8s0.7-2,0.8-3c0.2-1,0.3-2.1,0.3-3.1c0-3.5-1-6.7-2.9-9.6s-4.5-5-7.7-6.3v0.9
	c0,1.2-0.4,2.2-1.2,3.1c-0.8,0.9-1.8,1.3-3,1.3h-4.4v4.3c0,0.6-0.2,1-0.7,1.4c-0.4,0.4-1,0.5-1.5,0.5h-4.1V24h12.9
	c0.6,0,1,0.2,1.4,0.6c0.4,0.4,0.5,0.9,0.5,1.5v6.4h2.2c1,0,1.8,0.3,2.5,0.8C35.8,33.9,36.3,34.6,36.5,35.5z"/>
</svg>
